<svg width="302" height="91" viewBox="0 0 302 91" fill="none" xmlns="http://www.w3.org/2000/svg">
<path fill-rule="evenodd" clip-rule="evenodd" d="M71.9915 19.2335C66.4451 13.6669 56.3365 14.3319 45.804 20.0314C44.2314 20.8808 44.3489 24.3697 45.838 25.2827C54.0179 30.361 60.9052 37.2837 65.9529 45.5007C66.858 46.9958 70.3749 47.0472 71.1965 45.516C71.003 45.155 70.804 44.7946 70.5995 44.4349C70.8031 44.7946 71.0021 45.1551 71.1965 45.516C76.8755 34.9454 77.538 24.8 71.9915 19.2335ZM60.2701 30.9973C57.2576 27.958 53.9571 25.2207 50.4153 22.8243C54.4927 20.9319 58.3771 19.9175 61.6672 19.9175C64.6089 19.9175 67.0773 20.7269 68.7886 22.4443C72.4194 26.088 71.9878 33.1403 68.4138 40.8879C66.0228 37.3356 63.2956 34.0234 60.2701 30.9973Z" fill="#FFC750"/>
<path fill-rule="evenodd" clip-rule="evenodd" d="M74.4411 53.138C73.601 50.5004 72.5147 47.9484 71.1965 45.5159C70.3636 43.9616 66.8553 44.0086 65.9529 45.5007C63.4514 49.6067 60.4682 53.3967 57.0672 56.7896C53.6933 60.2048 49.9233 63.2013 45.8381 65.7151C44.3489 66.6279 44.282 70.1455 45.804 70.9662C51.411 74.0022 56.8969 75.6094 61.6408 75.6094C65.8053 75.6094 69.3982 74.3708 71.9915 71.7678C76.0501 67.6947 76.9171 61.0794 74.4411 53.138ZM68.7886 68.5533C65.1578 72.1972 58.1349 71.7602 50.4153 68.1735C53.9571 65.777 57.2576 63.0396 60.2701 60.0003C63.2971 56.98 66.0256 53.6728 68.4175 50.1249C71.9877 57.8687 72.4194 64.9132 68.7886 68.5533Z" fill="#FF6895"/>
<path fill-rule="evenodd" clip-rule="evenodd" d="M45.804 20.0313C43.3797 18.7066 40.8355 17.6162 38.2055 16.7749C30.2966 14.29 23.7052 15.16 19.6467 19.2333C17.0533 21.8361 15.819 25.4421 15.819 29.6218C15.819 34.3828 17.4205 39.8922 20.4417 45.5196C21.2633 47.0471 24.7685 46.9782 25.6777 45.4816C30.7388 37.2648 37.6423 30.348 45.8381 25.2826C47.3179 24.3797 47.3487 20.8634 45.804 20.0313ZM23.2283 40.8878C19.6543 33.1401 19.2189 26.0879 22.8497 22.4442C25.6551 19.6285 30.6298 19.1535 36.854 21.1143C38.3445 21.5874 39.8037 22.1547 41.2229 22.8127C34.1421 27.6443 28.0364 33.7772 23.2283 40.8878Z" fill="#5FC5A6"/>
<path fill-rule="evenodd" clip-rule="evenodd" d="M45.838 65.7151C41.7392 63.2043 37.9563 60.2076 34.5709 56.7896C31.1652 53.392 28.1794 49.5954 25.6777 45.4817C24.7754 43.9981 21.2708 43.9695 20.4417 45.5197C19.1247 47.951 18.0395 50.5017 17.2008 53.138C14.7211 61.0794 15.5918 67.6947 19.6466 71.7678C22.1908 74.3175 25.7268 75.6133 29.9596 75.6133C32.7625 75.5707 35.5427 75.1018 38.2055 74.2225C40.8348 73.3795 43.3789 72.2892 45.8039 70.9662C47.0268 70.3089 47.3163 66.6205 45.838 65.7151ZM36.8539 69.887C30.6298 71.8438 25.655 71.3688 22.8496 68.5533C20.0441 65.7377 19.5708 60.745 21.5207 54.4983C21.9916 53.0033 22.5568 51.54 23.213 50.1172C25.6089 53.6677 28.3412 56.9775 31.3717 60.0003C34.3822 63.0437 37.6815 65.7849 41.2228 68.1847C39.8044 68.8455 38.3451 69.4141 36.8539 69.887Z" fill="#5666F6"/>
<path fill-rule="evenodd" clip-rule="evenodd" d="M35.7152 45.2254L45.82 29.2891L55.9248 45.2254L45.82 51.0207L35.7152 45.2254Z" fill="#1F294F"/>
<path fill-rule="evenodd" clip-rule="evenodd" d="M35.7152 47.9475L45.82 53.7424L55.9248 47.9475L45.82 61.7108L35.7152 47.9475Z" fill="#1F294F"/>
<path fill-rule="evenodd" clip-rule="evenodd" d="M50.4153 22.8243C48.8459 23.5593 47.3179 24.38 45.838 25.2827C44.3489 24.3699 42.8079 23.5452 41.2229 22.8129C42.7025 21.8093 44.2314 20.881 45.8039 20.0315C47.3486 20.8636 48.8857 21.7945 50.4153 22.8243Z" fill="#5F9A34"/>
<path fill-rule="evenodd" clip-rule="evenodd" d="M71.1965 45.5159C70.375 47.0472 69.4473 48.5898 68.4175 50.1249C67.6808 48.5395 66.858 46.9957 65.9529 45.5007C66.8553 44.0087 67.6767 42.4688 68.4138 40.8879C69.4361 42.4191 70.3636 43.9618 71.1965 45.5159Z" fill="#FF512F"/>
<path fill-rule="evenodd" clip-rule="evenodd" d="M50.4152 68.1735C50.0972 68.3901 49.7792 68.5991 49.4612 68.8042C48.2496 69.5869 47.0268 70.3089 45.8039 70.9663C44.282 70.1456 42.755 69.2184 41.2229 68.1849C42.8079 67.4526 44.3489 66.6279 45.838 65.7151C47.3163 66.6206 48.8445 67.4414 50.4152 68.1735Z" fill="#552990"/>
<path fill-rule="evenodd" clip-rule="evenodd" d="M25.6777 45.4817C24.7684 46.9783 23.9455 48.526 23.2131 50.1173C22.1871 48.586 21.2633 47.0472 20.4417 45.5197C21.2708 43.9694 22.2022 42.4191 23.2282 40.8879C23.9576 42.4644 24.7754 43.9981 25.6777 45.4817Z" fill="#204FA0"/>
<path d="M280.655 58.1679V60.685C280.218 60.9429 279.719 61.0768 279.212 61.0723C278.208 61.0963 277.225 60.7796 276.422 60.1736C275.619 59.5675 275.043 58.7074 274.787 57.7323C273.438 59.1941 271.684 60.2181 269.751 60.6728C267.818 61.1275 265.793 60.9922 263.937 60.2843C262.081 59.5764 260.478 58.3281 259.334 56.6997C258.19 55.0712 257.556 53.1368 257.515 51.1445C257.473 49.1522 258.026 47.193 259.102 45.5181C260.177 43.8431 261.727 42.5289 263.552 41.744C265.377 40.9591 267.394 40.7392 269.344 41.1126C271.295 41.4861 273.089 42.4357 274.498 43.8398V41.3227H277.481V55.6508C277.481 57.4419 278.395 58.1679 279.453 58.1679H280.655ZM274.498 51.0039C274.495 49.6107 274.08 48.2499 273.306 47.0933C272.532 45.9367 271.434 45.0362 270.15 44.5057C268.866 43.9751 267.455 43.8382 266.094 44.1124C264.733 44.3865 263.483 45.0592 262.503 46.0457C261.523 47.0322 260.856 48.2881 260.586 49.6548C260.317 51.0216 260.457 52.4378 260.989 53.7246C261.521 55.0114 262.421 56.111 263.576 56.8847C264.73 57.6583 266.087 58.0712 267.476 58.0712C269.341 58.0686 271.128 57.3226 272.445 55.9973C273.762 54.6719 274.501 52.8757 274.498 51.0039ZM284.415 31.4955H287.549V61.0737H284.415V31.4955ZM253.083 50.8736C253.09 52.8755 252.511 54.8353 251.416 56.5088C250.321 58.1823 248.76 59.4954 246.927 60.2845C245.102 61.0597 243.088 61.2688 241.144 60.885C239.2 60.5013 237.415 59.5421 236.018 58.1311V60.6811H233.03V30.8662H236.018V43.616C237.415 42.205 239.2 41.2459 241.144 40.8621C243.088 40.4783 245.102 40.6875 246.927 41.4626C248.76 42.2517 250.321 43.5648 251.416 45.2383C252.511 46.9119 253.09 48.8717 253.083 50.8736ZM250.094 50.8736C250.075 49.4807 249.647 48.1245 248.862 46.9754C248.077 45.8264 246.971 44.9359 245.684 44.4159C244.396 43.8959 242.984 43.7696 241.625 44.0529C240.266 44.3362 239.021 45.0165 238.046 46.0082C237.071 46.9998 236.41 48.2586 236.146 49.6263C235.882 50.9939 236.027 52.4093 236.563 53.6945C237.098 54.9797 238 56.0773 239.156 56.8493C240.311 57.6212 241.668 58.0331 243.056 58.0331C243.984 58.0351 244.902 57.8512 245.758 57.4923C246.613 57.1333 247.389 56.6066 248.039 55.9429C249.364 54.5912 250.102 52.7692 250.094 50.8736ZM207.337 51.0046C207.34 48.678 208.146 46.4242 209.618 44.6271C211.09 42.83 213.138 41.6008 215.412 41.1488C217.686 40.6968 220.046 41.0501 222.09 42.1483C224.133 43.2465 225.734 45.0219 226.62 47.1719C227.506 49.322 227.622 51.7138 226.948 53.9399C226.274 56.166 224.852 58.0887 222.924 59.3806C220.996 60.6725 218.681 61.2536 216.374 61.025C214.067 60.7964 211.91 59.7722 210.271 58.1268C209.34 57.1913 208.602 56.0808 208.098 54.8587C207.595 53.6367 207.336 52.327 207.337 51.0046ZM224.401 51.0046C224.4 49.6078 223.987 48.2427 223.213 47.0817C222.439 45.9208 221.34 45.0162 220.054 44.4823C218.767 43.9484 217.353 43.8092 215.988 44.0822C214.623 44.3553 213.369 45.0283 212.385 46.0163C211.402 47.0043 210.732 48.2629 210.461 49.6329C210.189 51.0029 210.329 52.4228 210.862 53.7132C211.395 55.0036 212.297 56.1064 213.454 56.8823C214.611 57.6582 215.972 58.0724 217.364 58.0723C218.288 58.072 219.203 57.889 220.057 57.5336C220.911 57.1783 221.687 56.6576 222.341 56.0013C222.994 55.345 223.513 54.5659 223.866 53.7086C224.22 52.8512 224.401 51.9324 224.401 51.0046ZM192.297 44.9906V45.8672C192.348 53.4605 186.893 59.9116 179.556 60.9348C172.22 61.9579 165.283 57.2349 163.355 49.9034C161.427 42.5719 165.107 34.9121 171.95 32.0127C175.269 30.6181 178.986 30.5056 182.383 31.697C185.78 32.8884 188.618 35.2993 190.35 38.4654L187.739 39.975C186.427 37.5502 184.293 35.6773 181.724 34.6958C179.155 33.7143 176.32 33.6891 173.734 34.6249C171.137 35.6025 168.962 37.4598 167.585 39.8758C166.208 42.2919 165.715 45.1148 166.191 47.857C166.601 50.6032 167.978 53.1111 170.072 54.9259C172.166 56.7408 174.839 57.7423 177.606 57.749C180.373 57.7558 183.05 56.7672 185.153 54.9625C187.256 53.1579 188.645 50.6567 189.068 47.9125H177.625V44.9907L192.297 44.9906ZM198.564 31.4955H201.697V61.0737H198.564V31.4955ZM157.831 31.4955V61.0737H151.517V49.1439H139.755V61.0737H133.392V31.4955H139.755V43.3761H151.517V31.4955L157.831 31.4955ZM130.885 37.2633H123.69V61.0737H117.449V37.2633H110.206V31.4955H130.885V37.2633ZM97.1954 37.214V43.4254H106.722V49.1439H97.1954V55.3552H108.326V61.0737H90.7797V31.4955H108.326V37.214L97.1954 37.214Z" fill="#1F294F"/>
</svg>
