<svg width="103" height="103" viewBox="0 0 103 103" fill="none" xmlns="http://www.w3.org/2000/svg">
<rect y="0.0869446" width="102.826" height="102.826" rx="51.413" fill="#770002"/>
<path d="M16.795 36.4188C24.7469 47.1127 17.5948 55.2703 13.0247 58.0123C26.1865 62.6738 24.6783 73.4362 22.2791 78.2348C33.2472 74.1217 39.4167 84.0616 41.1305 89.5456C49.3566 80.7711 59.1822 85.8896 63.0668 89.5456C65.2604 76.6581 76.5484 76.6353 81.9182 78.2348C77.2568 65.8956 85.46 59.6118 90.1443 58.0123C80.273 49.2378 84.4317 39.9606 87.745 36.4188C74.3091 35.5962 72.0926 24.8795 72.6639 19.6239C61.1473 25.9306 53.9267 18.3671 51.7559 13.7971C46.2718 25.3136 35.5322 22.4802 30.8479 19.6239C30.5737 33.6082 21.3651 36.6473 16.795 36.4188Z" fill="white" stroke="white" stroke-width="0.685507"/>
</svg>
