<svg width="37" height="37" viewBox="0 0 37 37" fill="none" xmlns="http://www.w3.org/2000/svg">
<path d="M26.2896 1.33643H35.407V10.4539" stroke="#770002" stroke-width="1.40268"/>
<path d="M10.1587 1.33643H1.04129V10.4539" stroke="#770002" stroke-width="1.30249"/>
<path d="M1.04129 26.5845L1.04129 35.7019L10.1587 35.7019" stroke="#770002" stroke-width="1.30249"/>
<path d="M26.2896 35.7021H35.407V26.5847" stroke="#770002" stroke-width="1.30249"/>
<path d="M12.7954 28.3723V14.8533H8.30592V28.3723H12.7959H12.7954ZM10.5516 13.0079C12.1169 13.0079 13.0913 11.9698 13.0913 10.6724C13.062 9.34555 12.1169 8.33643 10.5814 8.33643C9.04483 8.33643 8.04129 9.34555 8.04129 10.6723C8.04129 11.9696 9.01541 13.0077 10.5222 13.0077H10.5513L10.5516 13.0079ZM15.2804 28.3723H19.7696V20.8235C19.7696 20.42 19.7989 20.0154 19.9175 19.7272C20.2419 18.9196 20.9805 18.0836 22.2211 18.0836C23.8451 18.0836 24.4952 19.3232 24.4952 21.1408V28.3723H28.9842V20.6209C28.9842 16.4687 26.7697 14.5364 23.8161 14.5364C21.3945 14.5364 20.3309 15.8911 19.74 16.8137H19.7699V14.8538H15.2807C15.3392 16.122 15.2803 28.3727 15.2803 28.3727L15.2804 28.3723Z" fill="#770002"/>
</svg>
