<svg width="301" height="91" viewBox="0 0 301 91" fill="none" xmlns="http://www.w3.org/2000/svg">
<g clip-path="url(#clip0_0_811)">
<path d="M7.8896 45.6102C7.8896 63.1064 22.0728 77.2896 39.5691 77.2896C57.0656 77.2896 71.2496 63.1064 71.2496 45.6102C71.2496 28.1139 57.0656 13.9307 39.5691 13.9307C22.0728 13.9307 7.8896 28.1139 7.8896 45.6102Z" fill="#0C0C4F" stroke="#EC796B" stroke-width="1.64571"/>
<path fill-rule="evenodd" clip-rule="evenodd" d="M25.233 37.9529L26.0353 35.4742C26.1984 34.97 26.5963 34.5777 27.1023 34.423L29.5932 33.657C29.938 33.5517 29.9408 33.0652 29.5988 32.9544L27.1191 32.152C26.6159 31.9889 26.2235 31.591 26.0679 31.085L25.3029 28.5941C25.1976 28.2503 24.7111 28.2465 24.6002 28.5895L23.7979 31.0683C23.6348 31.5715 23.2369 31.9638 22.7309 32.1194L20.24 32.8845C19.8952 32.9907 19.8915 33.4762 20.2344 33.5871L22.7141 34.3894C23.2173 34.5525 23.6097 34.9514 23.7653 35.4574L24.5304 37.9473C24.6356 38.2922 25.1221 38.2959 25.233 37.9529Z" fill="#FAFAFA"/>
<path fill-rule="evenodd" clip-rule="evenodd" d="M64.6043 36.5103C63.5778 35.362 61.9749 34.7155 60.4168 34.4503C58.8464 34.1957 57.1994 34.2193 55.6492 34.4948C52.512 35.0254 49.6621 36.3244 47.1763 37.9269C45.8854 38.7133 44.7846 39.6233 43.6441 40.5501C43.0946 41.0188 42.5936 41.5179 42.0719 42.0099L40.6462 43.4284C39.0971 45.0477 37.5701 46.5226 36.0928 47.7451C34.6095 48.962 33.2226 49.8861 31.856 50.5315C30.4901 51.1803 29.0287 51.5618 27.1238 51.6229C25.2357 51.6894 23.0018 51.3486 20.6123 50.7862C18.21 50.2262 15.6873 49.428 12.8682 48.7411C13.8519 51.47 15.3331 53.8815 17.2348 56.0858C19.1589 58.2519 21.5614 60.2264 24.6478 61.5248C27.6896 62.8521 31.5122 63.3285 35.0865 62.6098C38.6702 61.9198 41.815 60.2613 44.3571 58.3437C46.9057 56.4063 48.9676 54.1994 50.7059 51.9047C51.1856 51.2708 51.4394 50.916 51.7867 50.4205L52.7465 48.9988C53.4135 48.1194 54.0207 47.1182 54.6811 46.2469C55.9754 44.4221 57.2513 42.5995 58.7341 40.9203C59.4804 40.0686 60.2675 39.2539 61.1965 38.471C61.6601 38.0888 62.1604 37.7149 62.715 37.378C63.2779 37.0146 63.8724 36.7302 64.6043 36.5103Z" fill="#EC796B"/>
<path fill-rule="evenodd" clip-rule="evenodd" d="M64.6043 36.51C63.5013 33.7263 61.4503 31.383 58.6979 29.6539C55.9614 27.9438 52.1615 27.071 48.3961 27.815C46.5356 28.1748 44.7332 28.8675 43.1517 29.7899C41.5772 30.7087 40.1663 31.8147 38.9449 33.0012C38.3351 33.5964 37.7817 34.2174 37.2319 34.8418L35.8067 36.6588L33.6056 39.5835C30.7996 43.3466 27.7778 47.7567 22.819 49.0635C17.9508 50.3463 15.8394 49.2102 12.8682 48.7408C13.4115 50.1435 14.0844 51.5056 14.9968 52.7039C15.8921 53.9264 16.9496 55.0747 18.2643 56.0588C18.9288 56.5315 19.6302 56.9981 20.4094 57.3939C21.1849 57.7761 22.0213 58.1127 22.914 58.3661C24.6897 58.8528 26.6889 59.0232 28.6245 58.7615C30.5611 58.5031 32.4121 57.8893 34.0301 57.0742C35.66 56.267 37.0798 55.2837 38.3477 54.2461C40.8679 52.153 42.8281 49.8406 44.484 47.503C45.3169 46.3343 46.073 45.1436 46.7722 43.9525L47.5952 42.5345C47.8468 42.1199 48.1013 41.7029 48.3599 41.3145C49.4024 39.7539 50.4224 38.5027 51.6612 37.5635C52.8827 36.6 54.584 35.8881 56.8571 35.7228C59.1208 35.5554 61.7342 35.8645 64.6043 36.51Z" fill="#FAFAFA"/>
<path fill-rule="evenodd" clip-rule="evenodd" d="M52.357 59.6391C52.357 61.6835 54.0155 63.342 56.0599 63.342C58.1047 63.342 59.7607 61.6835 59.7607 59.6391C59.7607 57.5947 58.1047 55.9363 56.0599 55.9363C54.0155 55.9363 52.357 57.5947 52.357 59.6391Z" fill="#EC796B"/>
<path d="M291.131 36.5217V32.7828C291.131 32.6346 291.011 32.5144 290.863 32.5144H269.559C269.411 32.5144 269.291 32.6346 269.291 32.7828V36.5217H277.949V60.7097H282.473V36.5217H291.131Z" fill="black"/>
<path d="M247.026 32.5144C246.877 32.5144 246.757 32.6345 246.757 32.7828V60.4411C246.757 60.5892 246.877 60.7097 247.026 60.7097H264.953C265.102 60.7097 265.222 60.5892 265.222 60.4411V56.7419H251.281V47.8809H262.799V43.9927H251.281V36.482H264.229V32.7828C264.229 32.6346 264.109 32.5144 263.96 32.5144H247.026Z" fill="black"/>
<path d="M236.629 60.5456L236.727 60.7097H240.202C240.35 60.7097 240.47 60.5892 240.47 60.4411V32.7828C240.47 32.6346 240.35 32.5144 240.202 32.5144H236.026V52.0411C235.301 50.8869 234.459 49.6163 233.501 48.2297C232.28 46.4251 230.967 44.5944 229.561 42.7377C228.182 40.8546 226.776 39.0375 225.343 37.2865C223.936 35.5076 222.607 33.9519 221.355 32.6201L221.255 32.5144H217.985C217.836 32.5144 217.716 32.6345 217.716 32.7828V60.4411C217.716 60.5892 217.836 60.7097 217.985 60.7097H222.161V39.7913C222.732 40.4656 223.339 41.2129 223.984 42.0333C224.855 43.1419 225.753 44.3302 226.678 45.5983L226.679 45.5996L226.68 45.601C227.603 46.8418 228.528 48.1357 229.452 49.4827L229.454 49.4846L229.455 49.4864C230.406 50.834 231.317 52.1683 232.189 53.4892L232.19 53.4905L232.191 53.4917C233.062 54.7852 233.867 56.0388 234.606 57.2521L234.607 57.2541L234.608 57.2566C235.375 58.4724 236.049 59.5688 236.629 60.5456Z" fill="black"/>
<path d="M212.253 33.076L212.355 32.9636C212.512 32.7913 212.39 32.5144 212.157 32.5144H207.204L207.104 32.6308C206.446 33.3934 205.629 34.2896 204.652 35.3198C203.7 36.3246 202.682 37.3827 201.597 38.4937C200.513 39.6043 199.415 40.715 198.305 41.8257C197.417 42.6929 196.588 43.4923 195.818 44.2237V32.5144H191.563C191.415 32.5144 191.294 32.6345 191.294 32.7828V60.4411C191.294 60.5892 191.415 60.7097 191.563 60.7097H195.818V47.9185C196.752 48.5301 197.707 49.2457 198.682 50.066L198.684 50.0672L198.685 50.0684C199.867 51.0399 201.023 52.104 202.153 53.2608L202.156 53.2636L202.159 53.2663C203.314 54.3959 204.405 55.5911 205.43 56.8522L205.43 56.8534L205.432 56.8551C206.456 58.0898 207.361 59.3228 208.147 60.5546L208.246 60.7097H213.074C213.28 60.7097 213.41 60.4863 213.307 60.3074L213.249 60.207C212.525 58.9459 211.615 57.6224 210.522 56.2359C209.457 54.8514 208.312 53.4941 207.088 52.1637C205.864 50.8331 204.613 49.5818 203.335 48.4101C202.177 47.3488 201.071 46.4375 200.016 45.6776C200.913 44.8022 201.864 43.8622 202.869 42.8576C203.982 41.7446 205.095 40.6184 206.208 39.4789C207.347 38.3129 208.434 37.1865 209.468 36.0997L209.469 36.0982L209.471 36.0967C210.504 34.9841 211.431 33.9771 212.253 33.076Z" fill="black"/>
<path fill-rule="evenodd" clip-rule="evenodd" d="M165.616 32.3031C165.468 32.3031 165.348 32.4233 165.348 32.5715V60.458C165.348 60.6065 165.468 60.7266 165.616 60.7266H169.449V50.4735H175.049C175.679 51.2278 176.293 52.017 176.893 52.8411L176.895 52.8442L176.897 52.8473C177.877 54.1323 178.783 55.4727 179.614 56.8691L179.615 56.8703L179.616 56.872C180.369 58.1075 181.026 59.3278 181.587 60.5329L181.677 60.7266H186.213C186.408 60.7266 186.538 60.5263 186.457 60.3494C185.935 59.2064 185.37 58.0869 184.742 56.9966C183.889 55.4727 182.953 53.9637 181.935 52.4701C181.352 51.6165 180.758 50.7873 180.151 49.9824C181.843 49.4651 183.182 48.5298 184.15 47.1721L184.151 47.171C185.313 45.5279 185.889 43.5954 185.889 41.3882C185.889 39.8715 185.625 38.4837 185.091 37.2297C184.556 35.9574 183.75 34.9023 182.676 34.0699C181.61 33.2331 180.296 32.7006 178.748 32.4618C178.388 32.3953 178.015 32.3554 177.631 32.3419C177.255 32.3161 176.928 32.3029 176.649 32.3029C175.474 32.3029 174.297 32.3028 173.121 32.3027C170.619 32.3024 168.118 32.3023 165.616 32.3031ZM181.71 41.3882C181.71 42.1208 181.589 42.8416 181.343 43.5522C181.104 44.2345 180.721 44.8327 180.193 45.3496C179.691 45.8391 179.031 46.1862 178.193 46.3804C177.928 46.4407 177.643 46.4834 177.336 46.5079L177.335 46.508L177.335 46.508C177.033 46.5331 176.767 46.5454 176.534 46.5454H169.449V36.2311H176.534C176.767 36.2311 177.033 36.2433 177.335 36.2685L177.342 36.269L177.349 36.2693C177.647 36.2812 177.924 36.3229 178.18 36.3927L178.189 36.395L178.197 36.3969C179.031 36.5782 179.69 36.924 180.19 37.424L180.191 37.4254L180.193 37.4267C180.72 37.9428 181.103 38.547 181.343 39.2427V39.2436L181.344 39.2444C181.588 39.9413 181.71 40.6554 181.71 41.3882Z" fill="black"/>
<path fill-rule="evenodd" clip-rule="evenodd" d="M155.284 56.9871L155.284 56.9884L155.285 56.9896C155.683 58.1309 156.107 59.2985 156.559 60.4925L156.64 60.7097H161.178C161.364 60.7097 161.494 60.5246 161.43 60.3493C160.439 57.6261 159.439 54.9061 158.418 52.1939C157.49 49.7031 156.576 47.3443 155.675 45.1176C154.8 42.8908 153.925 40.7695 153.05 38.7538C152.172 36.7052 151.248 34.6769 150.286 32.6667C150.241 32.5736 150.147 32.5144 150.044 32.5144H146.424C146.321 32.5144 146.227 32.5736 146.182 32.6667C145.22 34.677 144.296 36.7053 143.418 38.754C142.543 40.7689 141.655 42.8896 140.754 45.1158L140.753 45.1175L140.753 45.1191C139.878 47.3451 138.977 49.7034 138.05 52.1938C137.029 54.9061 136.028 57.6261 135.037 60.3493C134.973 60.5246 135.103 60.7097 135.289 60.7097H139.633L139.634 60.7093H139.718L139.818 60.6023C140.866 59.4775 142.037 58.3732 143.332 57.2903L143.334 57.2895L143.335 57.2883C144.635 56.1783 145.991 55.1489 147.401 54.1997L147.405 54.1976L147.408 54.1952C148.797 53.2133 150.196 52.3321 151.604 51.5515L151.605 51.5505L151.607 51.5496C152.114 51.2611 152.613 50.9924 153.104 50.7432L154.054 53.4556L154.055 53.4577C154.478 54.6476 154.887 55.824 155.284 56.9871ZM150.402 43.6128L150.403 43.6151L150.404 43.6174C150.786 44.585 151.168 45.5687 151.551 46.5687C151.522 46.5813 151.493 46.5944 151.463 46.6079C150.119 47.2205 148.673 48.0124 147.127 48.982C145.647 49.9102 144.179 50.9186 142.722 52.0072L143.339 50.246C144.155 47.9569 144.971 45.7466 145.787 43.6151C146.537 41.6928 147.318 39.8438 148.13 38.0681C148.918 39.8431 149.676 41.6913 150.402 43.6128Z" fill="black"/>
<path d="M136.145 36.5217V32.7828C136.145 32.6346 136.024 32.5144 135.876 32.5144H114.573C114.424 32.5144 114.304 32.6346 114.304 32.7828V36.5217H122.962V60.4411C122.962 60.5892 123.083 60.7097 123.231 60.7097H127.218C127.366 60.7097 127.486 60.5892 127.486 60.4411V36.5217H136.145Z" fill="black"/>
<path d="M94.7566 60.3665L94.7554 60.3661C93.1146 59.6666 91.7499 58.6681 90.6678 57.3696L90.6666 57.368L90.6653 57.3668C89.5944 56.0518 88.8987 54.5016 88.5757 52.7241C88.5596 52.6353 88.5798 52.5436 88.6321 52.4699C88.6843 52.3962 88.7641 52.3468 88.8534 52.3327L92.462 51.764C92.6328 51.7371 92.7961 51.8443 92.8389 52.0118C93.2775 53.7156 94.1802 55.0381 95.5486 55.9967C96.9376 56.9471 98.5755 57.4272 100.476 57.4272C101.709 57.4272 102.811 57.2367 103.787 56.8619C104.773 56.4744 105.539 55.9309 106.098 55.238C106.649 54.5567 106.926 53.7498 106.926 52.8014C106.926 52.2126 106.822 51.7306 106.628 51.3433C106.626 51.3398 106.625 51.3363 106.623 51.3328C106.435 50.9202 106.171 50.5755 105.832 50.2947C105.829 50.292 105.825 50.2893 105.822 50.2865C105.482 49.9824 105.09 49.7253 104.647 49.516C104.194 49.3018 103.721 49.1252 103.229 48.9864L103.224 48.9851L96.0263 46.8472C95.2248 46.6069 94.4501 46.3063 93.7021 45.9456L93.7 45.9446L93.6976 45.9435C92.9381 45.5637 92.2576 45.0945 91.6577 44.5357L91.6561 44.5339L91.6548 44.5329C91.0467 43.9525 90.5645 43.2625 90.2078 42.4664L90.207 42.4644C89.8441 41.6415 89.6684 40.6848 89.6684 39.6032C89.6684 37.8693 90.1165 36.372 91.0278 35.1296L91.0282 35.1291C91.9432 33.8861 93.1771 32.9416 94.7175 32.2929C96.2562 31.6452 97.9822 31.3316 99.8904 31.3449C101.824 31.3582 103.564 31.7051 105.102 32.3932C106.653 33.0675 107.939 34.0412 108.955 35.3139C109.986 36.5893 110.673 38.1113 111.022 39.8713C111.04 39.9599 111.021 40.0518 110.97 40.1263C110.919 40.2008 110.84 40.2516 110.751 40.2671L107.045 40.9143C106.957 40.9296 106.867 40.9093 106.794 40.8579C106.721 40.8064 106.671 40.7281 106.656 40.6401C106.469 39.5419 106.054 38.6104 105.414 37.8361L105.411 37.8316C104.779 37.0385 103.986 36.4308 103.028 36.0076L103.024 36.0061C102.064 35.5694 101.005 35.3427 99.8451 35.3302H99.8447C98.7326 35.3175 97.7386 35.4945 96.8573 35.8544C95.9736 36.2153 95.284 36.7134 94.7755 37.3431L94.7735 37.3455C94.2744 37.9513 94.0263 38.647 94.0263 39.4463C94.0263 40.2401 94.2526 40.8523 94.6809 41.3152C95.1429 41.8013 95.7111 42.1939 96.3908 42.4908C97.1112 42.7866 97.8102 43.0302 98.4887 43.2222L98.4903 43.2226L103.862 44.7714C104.488 44.9447 105.203 45.1832 106.006 45.486C106.847 45.7979 107.657 46.2374 108.437 46.8022C109.241 47.3702 109.9 48.1287 110.418 49.0693C110.95 50.0222 111.205 51.2071 111.205 52.6053C111.205 54.0106 110.922 55.2738 110.345 56.3863C109.785 57.4918 108.999 58.4204 107.991 59.1696L107.989 59.1713C106.987 59.9028 105.826 60.4549 104.512 60.8306C103.197 61.2194 101.792 61.4127 100.3 61.4127C98.2611 61.4127 96.4114 61.0663 94.7566 60.3665Z" fill="black"/>
</g>
<defs>
<clipPath id="clip0_0_811">
<rect width="288" height="65.4171" fill="white" transform="translate(7 13)"/>
</clipPath>
</defs>
</svg>
