<svg width="36" height="37" viewBox="0 0 36 37" fill="none" xmlns="http://www.w3.org/2000/svg">
<g clip-path="url(#clip0_0_962)">
<path d="M19.625 16.2632L28.846 5.54443H26.6609L18.6543 14.8514L12.2594 5.54443H4.88361L14.554 19.6182L4.88361 30.8585H7.06884L15.5241 21.03L22.2776 30.8585H29.6533L19.625 16.2632ZM16.632 19.7422L15.6522 18.3408L7.85621 7.18944H11.2126L17.504 16.1889L18.4838 17.5903L26.662 29.2883H23.3056L16.632 19.7422Z" fill="#770002"/>
</g>
<path d="M25.9239 1.33643H35.0413V10.4539" stroke="#770002" stroke-width="1.40268"/>
<path d="M9.793 1.33643H0.675567V10.4539" stroke="#770002" stroke-width="1.30249"/>
<path d="M0.675568 26.5845L0.675567 35.7019L9.793 35.7019" stroke="#770002" stroke-width="1.30249"/>
<path d="M25.9239 35.7021H35.0413V26.5847" stroke="#770002" stroke-width="1.30249"/>
<defs>
<clipPath id="clip0_0_962">
<rect width="24.7697" height="25.327" fill="white" transform="translate(4.88361 5.54443)"/>
</clipPath>
</defs>
</svg>
